<svg width="512" height="452" xmlns="http://www.w3.org/2000/svg" enable-background="new 0 0 512 512">

 <g>
  <title>Layer 1</title>
  <g id="svg_1">
   <g id="svg_2">
    <g id="svg_3">
     <g id="svg_4">
      <path id="svg_5" fill="#0a5b36" d="m251.346,449.356c-4.146,0 -7.508,-3.361 -7.508,-7.508l0,-69.598c0,-4.147 3.361,-7.508 7.508,-7.508s7.508,3.361 7.508,7.508l0,69.598c0,4.147 -3.362,7.508 -7.508,7.508z"/>
     </g>
     <g id="svg_6">
      <path id="svg_7" fill="#0a5b36" d="m329.118,452.264c-4.147,0 -7.508,-3.361 -7.508,-7.508l0,-108.696c0,-4.147 3.361,-7.508 7.508,-7.508s7.508,3.361 7.508,7.508l0,108.695c-0.001,4.148 -3.362,7.509 -7.508,7.509z"/>
     </g>
     <circle id="svg_8" r="67.218" fill="#0f7a4f" cy="317.045" cx="246.069"/>
     <path id="svg_9" fill="#0c6842" d="m313.288,317.048c0,37.119 -30.099,67.218 -67.218,67.218c-15.839,0 -30.399,-5.48 -41.889,-14.65c6.03,1.78 12.41,2.73 19.019,2.73c37.119,0 67.208,-30.099 67.208,-67.218c0,-21.28 -9.89,-40.259 -25.319,-52.568c27.86,8.2 48.199,33.969 48.199,64.488z"/>
    </g>
   </g>
   <g id="svg_10">
    <circle id="svg_11" r="67.218" fill="#158f5e" cy="156.451" cx="349.753"/>
    <path id="svg_12" fill="#0f7a4f" d="m416.975,156.453c0,37.119 -30.099,67.218 -67.218,67.218c-5.37,0 -10.59,-0.63 -15.589,-1.82c29.599,-7.04 51.618,-33.649 51.618,-65.398c0,-31.759 -22.019,-58.368 -51.618,-65.398c5,-1.19 10.22,-1.82 15.589,-1.82c37.119,0 67.218,30.089 67.218,67.218z"/>
   </g>
   <g id="svg_13">
    <circle id="svg_14" r="67.218" fill="#158f5e" cy="248.006" cx="437.805"/>
    <path id="svg_15" fill="#0f7a4f" d="m505.022,248.01c0,37.119 -30.099,67.218 -67.218,67.218c-6.11,0 -12.03,-0.82 -17.659,-2.35c32.939,-4.34 58.358,-32.519 58.358,-66.638c0,-31.009 -20.999,-57.118 -49.558,-64.868c2.9,-0.38 5.86,-0.58 8.86,-0.58c37.118,0 67.217,30.089 67.217,67.218z"/>
   </g>
   <g id="svg_16">
    <g id="svg_17">
     <path id="svg_18" fill="#0f7a4f" d="m360.518,449.356c-4.147,0 -7.508,-3.361 -7.508,-7.508l0,-100.249c0,-4.147 3.361,-7.508 7.508,-7.508s7.508,3.361 7.508,7.508l0,100.249c0,4.147 -3.361,7.508 -7.508,7.508z"/>
     <path id="svg_19" fill="#d2f0a2" d="m394.659,367.423c-28.979,0 -52.471,-23.492 -52.471,-52.471l0,-114.759c0,-28.979 23.492,-52.471 52.471,-52.471c28.979,0 52.471,23.492 52.471,52.471l0,114.758c0,28.98 -23.492,52.472 -52.471,52.472z"/>
     <path id="svg_20" fill="#bcea73" d="m447.134,200.191l0,114.756c0,28.979 -23.499,52.478 -52.478,52.478c-4.45,0 -8.77,-0.55 -12.89,-1.6c22.749,-5.74 39.589,-26.349 39.589,-50.878l0,-114.756c0,-14.49 -5.87,-27.609 -15.37,-37.099c-6.58,-6.58 -14.899,-11.42 -24.219,-13.77c4.12,-1.05 8.44,-1.6 12.89,-1.6c14.49,0 27.609,5.87 37.109,15.37c9.499,9.49 15.369,22.61 15.369,37.099z"/>
    </g>
    <path id="svg_21" fill="#a3e440" d="m416.595,290.18c-2.933,-2.931 -7.686,-2.931 -10.618,0l-3.81,3.81l0,-16.401c0,-0.001 0,-0.003 0,-0.005l0,-29.351c0,-4.147 -3.361,-7.508 -7.508,-7.508s-7.508,3.361 -7.508,7.508l0,11.227l-7.571,-7.572c-2.932,-2.932 -7.686,-2.933 -10.617,-0.001c-2.933,2.932 -2.933,7.686 -0.001,10.617l18.19,18.191l0,31.415l0,0.01l0,125.657c0,4.147 3.361,7.508 7.508,7.508s7.508,-3.361 7.508,-7.508l0,-122.551l14.428,-14.428c2.93,-2.932 2.93,-7.685 -0.001,-10.618z"/>
   </g>
   <g id="svg_22">
    <g id="svg_23">
     <path id="svg_24" fill="#d2f0a2" d="m127.393,236.129c-28.979,0 -52.471,-23.492 -52.471,-52.471l0,-73.452c0,-28.979 23.492,-52.471 52.471,-52.471c28.979,0 52.471,23.492 52.471,52.471l0,73.452c0.001,28.979 -23.492,52.471 -52.471,52.471z"/>
     <path id="svg_25" fill="#bcea73" d="m179.863,110.204l0,73.458c0,28.979 -23.489,52.469 -52.468,52.469c-4.96,0 -9.77,-0.69 -14.32,-1.98c22.019,-6.23 38.149,-26.469 38.149,-50.488l0,-73.458c0,-14.49 -5.87,-27.609 -15.369,-37.099c-6.24,-6.25 -14.05,-10.92 -22.779,-13.389c4.55,-1.29 9.36,-1.98 14.32,-1.98c14.49,0 27.609,5.87 37.099,15.369c9.498,9.489 15.368,22.609 15.368,37.098z"/>
    </g>
    <path id="svg_26" fill="#a3e440" d="m149.329,158.886c-2.932,-2.931 -7.686,-2.931 -10.617,0l-3.811,3.811l0,-16.402c0,-0.001 0,-0.003 0,-0.005l0,-29.35c0,-4.147 -3.361,-7.508 -7.508,-7.508s-7.508,3.361 -7.508,7.508l0,11.227l-7.572,-7.573c-2.932,-2.931 -7.686,-2.931 -10.617,0c-2.932,2.933 -2.932,7.686 0,10.618l18.19,18.19l0,31.418l0,0.005l0,263.931c0,4.147 3.361,7.508 7.508,7.508s7.508,-3.361 7.508,-7.508l0,-260.823l14.428,-14.428c2.931,-2.933 2.931,-7.686 -0.001,-10.619z"/>
   </g>
   <g id="svg_27">
    <circle id="svg_28" r="79.666" fill="#1ca56f" cy="253.095" cx="200.949"/>
    <path id="svg_29" fill="#158f5e" d="m280.619,253.09c0,43.999 -35.669,79.667 -79.667,79.667c-12.63,0 -24.569,-2.94 -35.179,-8.18c37.049,-6.84 65.118,-39.309 65.118,-78.337c0,-31.369 -18.129,-58.498 -44.479,-71.488c4.71,-0.87 9.57,-1.32 14.54,-1.32c43.998,0 79.667,35.669 79.667,79.658z"/>
    <path id="svg_30" fill="#0f7a4f" d="m224.279,216.655c-2.932,-2.931 -7.686,-2.932 -10.617,0.001l-5.205,5.204l0,-8.667c0,-4.147 -3.361,-7.508 -7.508,-7.508s-7.508,3.361 -7.508,7.508l0,79.458c0,4.147 3.361,7.508 7.508,7.508s7.508,-3.361 7.508,-7.508l0,-49.557l15.822,-15.823c2.932,-2.931 2.932,-7.683 0,-10.616z"/>
    <g id="svg_31">
     <path id="svg_32" fill="#0f7a4f" d="m200.949,452.264c-4.146,0 -7.508,-3.361 -7.508,-7.508l0,-71.292c0,-4.147 3.361,-7.508 7.508,-7.508s7.508,3.361 7.508,7.508l0,71.292c0,4.147 -3.361,7.508 -7.508,7.508z"/>
    </g>
   </g>
   <g id="svg_33">
    <path id="svg_34" fill="#a3e440" d="m349.753,270.126c0,92.327 -23.688,90.68 -52.909,90.68s-52.909,1.647 -52.909,-90.68s29.857,-196.494 52.909,-196.494s52.909,104.167 52.909,196.494z"/>
    <path id="svg_35" fill="#a3e440" d="m349.753,270.126c0,92.327 -23.688,90.68 -52.909,90.68s-52.909,1.647 -52.909,-90.68s29.857,-196.494 52.909,-196.494s52.909,104.167 52.909,196.494z"/>
    <path id="svg_36" fill="#99d53b" d="m349.748,270.124c0,92.332 -23.682,90.681 -52.904,90.681c-4.759,0 -9.381,0.046 -13.774,-0.287c22.535,-1.675 39.13,-13.132 39.13,-90.394c0,-74.591 -19.496,-156.899 -39.13,-185.777c4.668,-6.87 9.347,-10.712 13.774,-10.712c23.051,0.001 52.904,104.169 52.904,196.489z"/>
    <path id="svg_37" fill="#88ba31" d="m328.708,279.854c-2.933,-2.931 -7.686,-2.931 -10.618,0l-13.738,13.738l0,-28.744c0,-0.003 0,-0.007 0,-0.01l0,-33.816c0,-4.147 -3.361,-7.508 -7.508,-7.508s-7.508,3.361 -7.508,7.508l0,15.695l-10.678,-10.678c-2.933,-2.931 -7.686,-2.931 -10.618,0c-2.932,2.933 -2.932,7.686 0,10.618l21.296,21.296l0,43.76l0,0.01l0,130.125c0,4.147 3.361,7.508 7.508,7.508s7.508,-3.361 7.508,-7.508l0,-127.02l24.356,-24.356c2.932,-2.932 2.932,-7.685 0,-10.618z"/>
   </g>
   <g id="svg_38">
    <path id="svg_39" fill="#a3e440" d="m8.038,337.498c0,71.114 32.054,69.845 71.594,69.845s71.594,1.269 71.594,-69.845s-40.401,-151.346 -71.594,-151.346s-71.594,80.232 -71.594,151.346z"/>
    <path id="svg_40" fill="#99d53b" d="m8.038,337.498c0,71.114 32.054,69.845 71.594,69.845s71.594,1.269 71.594,-69.845s-40.401,-151.346 -71.594,-151.346s-71.594,80.232 -71.594,151.346z"/>
    <path id="svg_41" fill="#8dc637" d="m151.223,337.497c0,71.118 -32.049,69.848 -71.588,69.848c-5.14,0 -10.14,0.02 -14.969,-0.1c32.349,-0.79 56.618,-7.87 56.618,-69.748c0,-60.098 -28.849,-126.706 -56.618,-145.895c5.09,-3.53 10.14,-5.45 14.969,-5.45c31.19,0 71.588,80.228 71.588,151.345z"/>
   </g>
   <g id="svg_42">
    <path id="svg_43" fill="#a3e440" d="m219.496,340.171c0,52.554 -23.688,51.616 -52.909,51.616s-52.909,0.938 -52.909,-51.616s29.857,-111.846 52.909,-111.846s52.909,59.292 52.909,111.846z"/>
    <path id="svg_44" fill="#a3e440" d="m219.496,340.171c0,52.554 -23.688,51.616 -52.909,51.616s-52.909,0.938 -52.909,-51.616s29.857,-111.846 52.909,-111.846s52.909,59.292 52.909,111.846z"/>
    <path id="svg_45" fill="#99d53b" d="m219.491,340.167c0,52.558 -23.679,51.618 -52.908,51.618c-5.45,0 -10.7,0.03 -15.649,-0.26c21.579,-1.25 37.259,-8.6 37.259,-51.358c0,-41.109 -18.269,-86.337 -37.259,-104.097c5.28,-4.94 10.63,-7.75 15.649,-7.75c23.059,0.001 52.908,59.299 52.908,111.847z"/>
    <path id="svg_46" fill="#88ba31" d="m198.451,326.323c-2.931,-2.931 -7.685,-2.931 -10.617,0l-13.739,13.739l0,-36.756c0,-4.147 -3.361,-7.508 -7.508,-7.508s-7.508,3.361 -7.508,7.508l0,54.879l0,0.005l0,83.659c0,4.147 3.361,7.508 7.508,7.508s7.508,-3.361 7.508,-7.508l0,-80.552l24.356,-24.356c2.932,-2.932 2.932,-7.685 0,-10.618z"/>
   </g>
   <g id="svg_47">
    <path id="svg_48" fill="#a3e440" d="m501.49,365.772c0,37.876 -17.072,37.201 -38.132,37.201s-38.132,0.676 -38.132,-37.201s21.518,-80.609 38.132,-80.609s38.132,42.733 38.132,80.609z"/>
    <path id="svg_49" fill="#a3e440" d="m501.49,365.772c0,37.876 -17.072,37.201 -38.132,37.201s-38.132,0.676 -38.132,-37.201s21.518,-80.609 38.132,-80.609s38.132,42.733 38.132,80.609z"/>
    <path id="svg_50" fill="#99d53b" d="m501.492,365.776c0,37.869 -17.079,37.199 -38.139,37.199c-4.48,0 -8.78,0.03 -12.77,-0.29c14.78,-1.17 25.349,-7.1 25.349,-36.909c0,-28.549 -12.22,-59.848 -25.349,-73.548c4.28,-4.48 8.67,-7.07 12.77,-7.07c16.62,0.001 38.139,42.739 38.139,80.618z"/>
    <path id="svg_51" fill="#88ba31" d="m483.198,358.915c-2.931,-2.931 -7.685,-2.932 -10.617,0.001l-1.715,1.715l0,-21.427c0,-4.147 -3.361,-7.508 -7.508,-7.508s-7.508,3.361 -7.508,7.508l0,39.552l0,0.005l0,63.089c0,4.147 3.361,7.508 7.508,7.508s7.508,-3.361 7.508,-7.508l0,-59.982l12.333,-12.334c2.931,-2.933 2.931,-7.687 -0.001,-10.619z"/>
   </g>
   <path id="svg_52" fill="#88ba31" d="m98.668,309.904c2.932,-2.933 2.932,-7.686 0,-10.618c-2.932,-2.931 -7.686,-2.931 -10.617,0l-0.911,0.911l0,-20.668c0,-4.147 -3.361,-7.508 -7.508,-7.508s-7.508,3.361 -7.508,7.508l0,64.223l-9.453,-9.453c-2.932,-2.931 -7.686,-2.931 -10.617,0c-2.932,2.933 -2.932,7.686 0,10.618l20.071,20.07l0,76.862c0,4.147 3.361,7.508 7.508,7.508s7.508,-3.361 7.508,-7.508l0,-79.97c0,-0.001 0,-0.003 0,-0.005l0,-40.442l11.527,-11.528z"/>
   <g id="svg_53">
    <g id="svg_54">
     <path id="svg_55" fill="#0a5b36" d="m504.492,454.266l-496.984,0c-4.146,0 -7.508,-3.361 -7.508,-7.508s3.361,-7.508 7.508,-7.508l496.984,0c4.147,0 7.508,3.361 7.508,7.508s-3.361,7.508 -7.508,7.508z"/>
    </g>
   </g>
  </g>
 </g>
</svg>